<?xml version="1.0" encoding="UTF-8"?>
<svg id="Layer_2" data-name="Layer 2" xmlns="http://www.w3.org/2000/svg" viewBox="0 0 785.08 166.13">
  <g id="Layer_1-2" data-name="Layer 1">
    <g>
      <path d="M520.47,162.14h4.68v-17.99h-4.68v17.99ZM513.08,162.14h4.68v-17.99h-4.68v17.99ZM503.71,159.51c-.96,0-1.65-.54-1.65-1.45v-.05c0-.99.79-1.65,2.14-1.65.69,0,1.36.15,1.82.34v.62c.01,1.32-.95,2.19-2.31,2.19M502.04,162.44c1.75,0,3.01-.67,3.92-1.68v1.38h4.63v-7.66c0-1.87-.42-3.25-1.43-4.24-1.06-1.06-2.69-1.63-5.08-1.63s-3.89.42-5.4,1.03l.96,3.3c1.18-.47,2.27-.74,3.67-.74,1.8,0,2.66.79,2.66,2.17v.22c-.76-.27-1.97-.52-3.2-.52-3.13,0-5.22,1.43-5.22,4.19v.05c0,2.68,1.95,4.13,4.49,4.13M492.9,162.41c1.31,0,2.41-.3,3.25-.76v-3.67c-.57.27-1.16.44-1.77.44-.86,0-1.28-.39-1.28-1.33v-4.51h3.1v-3.77h-3.1v-3.38h-4.68v3.38h-1.58v3.77h1.58v5.42c0,3.18,1.67,4.41,4.48,4.41M480.48,162.44c3.25,0,5.45-1.53,5.45-4.46v-.05c0-2.59-2.09-3.5-4.73-4.24-1.4-.42-2.17-.67-2.17-1.18v-.05c0-.37.37-.64,1.08-.64,1.06,0,2.56.47,3.94,1.23l1.6-2.96c-1.53-.99-3.55-1.55-5.49-1.55-3.08,0-5.35,1.58-5.35,4.41v.05c0,2.69,2.09,3.57,4.73,4.26,1.4.39,2.14.62,2.14,1.13v.05c0,.47-.37.71-1.18.71-1.38,0-3.06-.52-4.58-1.53l-1.75,2.83c1.85,1.35,4.07,1.99,6.31,1.99M459.56,162.14h4.68v-7.22c0-1.45.84-2.24,1.97-2.24s1.87.79,1.87,2.24v7.22h4.68v-8.72c0-3.03-1.7-4.9-4.53-4.9-1.9,0-3.13,1.06-3.99,2.17v-1.87h-4.68v13.32ZM451.87,162.14h4.8v-17.25h-4.8v17.25ZM437.48,162.14h4.88v-4.8h-4.88v4.8ZM419.84,154.38c.25-1.45,1.08-2.41,2.32-2.41s2.14.94,2.32,2.41h-4.64ZM422.55,162.46c2.66,0,4.51-1.08,5.79-2.71l-2.59-2.14c-.96.94-1.85,1.36-2.96,1.36-1.45,0-2.51-.74-2.88-2.19h8.92c.02-.32.02-.67.02-.96,0-3.92-2.12-7.29-6.73-7.29-3.94,0-6.73,3.08-6.73,6.97v.05c.02,4.13,2.97,6.91,7.16,6.91M405.65,162.14h4.68v-4.14c0-3.08,1.38-4.48,3.82-4.48h.39v-4.93c-2.22-.1-3.45,1.08-4.21,2.91v-2.69h-4.68v13.33h0ZM394.46,162.44c1.9,0,3.13-1.01,3.99-2.12v1.82h4.68v-13.33h-4.68v7.22c0,1.45-.84,2.24-1.95,2.24s-1.9-.79-1.9-2.24v-7.22h-4.68v8.72c.01,3.04,1.71,4.91,4.54,4.91M384.71,162.41c1.31,0,2.41-.3,3.25-.76v-3.67c-.57.27-1.16.44-1.77.44-.86,0-1.28-.39-1.28-1.33v-4.51h3.1v-3.77h-3.1v-3.38h-4.68v3.38h-1.58v3.77h1.58v5.42c-.01,3.18,1.67,4.41,4.48,4.41M371.82,162.46c2.93,0,4.71-1.23,5.94-3.06l-3.13-2.27c-.74.86-1.45,1.38-2.56,1.38-1.58,0-2.66-1.31-2.66-3.03v-.05c0-1.63,1.11-2.96,2.61-2.96,1.13,0,1.85.52,2.49,1.4l3.18-2.37c-1.13-1.8-2.96-2.98-5.69-2.98-4.21,0-7.15,3.18-7.15,6.95v.05c0,3.79,2.96,6.94,6.97,6.94M356.13,159.51c-.96,0-1.65-.54-1.65-1.45v-.05c0-.99.79-1.65,2.14-1.65.69,0,1.36.15,1.82.34v.62c0,1.32-.96,2.19-2.31,2.19M354.45,162.44c1.75,0,3.01-.67,3.92-1.68v1.38h4.63v-7.66c0-1.87-.42-3.25-1.43-4.24-1.06-1.06-2.69-1.63-5.08-1.63s-3.89.42-5.4,1.03l.96,3.3c1.18-.47,2.27-.74,3.67-.74,1.8,0,2.66.79,2.66,2.17v.22c-.76-.27-1.97-.52-3.2-.52-3.13,0-5.22,1.43-5.22,4.19v.05c0,2.68,1.95,4.13,4.49,4.13M341.89,162.14h4.66v-9.58h2.98v-3.6h-3.06v-.32c0-.86.47-1.26,1.33-1.26.67,0,1.21.1,1.75.27v-3.3c-.74-.22-1.63-.37-3.06-.37-1.58,0-2.66.34-3.47,1.16-.79.79-1.13,1.92-1.13,3.45v.3h-1.55v3.67h1.55v9.58ZM329.86,162.44c1.9,0,3.13-1.01,3.99-2.12v1.82h4.68v-13.33h-4.68v7.22c0,1.45-.84,2.24-1.95,2.24s-1.9-.79-1.9-2.24v-7.22h-4.68v8.72c.01,3.04,1.71,4.91,4.54,4.91M309.81,162.14h4.68v-7.22c0-1.45.84-2.24,1.97-2.24s1.87.79,1.87,2.24v7.22h4.68v-8.72c0-3.03-1.7-4.9-4.53-4.9-1.9,0-3.13,1.06-3.99,2.17v-1.87h-4.68v13.32ZM300.54,159.51c-.96,0-1.65-.54-1.65-1.45v-.05c0-.99.79-1.65,2.14-1.65.69,0,1.36.15,1.82.34v.62c0,1.32-.95,2.19-2.31,2.19M298.87,162.44c1.75,0,3.01-.67,3.92-1.68v1.38h4.63v-7.66c0-1.87-.42-3.25-1.43-4.24-1.06-1.06-2.69-1.63-5.08-1.63s-3.89.42-5.4,1.03l.96,3.3c1.18-.47,2.27-.74,3.67-.74,1.8,0,2.66.79,2.66,2.17v.22c-.76-.27-1.97-.52-3.2-.52-3.13,0-5.22,1.43-5.22,4.19v.05c0,2.68,1.95,4.13,4.49,4.13M273.93,162.14h4.68v-9.86l4.39,6.7h.1l4.41-6.75v9.9h4.76v-17.25h-5.05l-4.11,6.68-4.11-6.68h-5.05v17.26h-.02ZM259.64,162.14h4.88v-4.8h-4.88v4.8ZM237.39,162.14h4.68v-7.22c0-1.45.84-2.24,1.97-2.24s1.87.79,1.87,2.24v7.22h4.68v-8.72c0-3.03-1.7-4.9-4.53-4.9-1.9,0-3.13,1.06-3.99,2.17v-1.87h-4.68v13.32ZM227.56,157.36c-1.6,0-2.73-1.08-2.73-2.56v-.05c0-1.48,1.13-2.59,2.73-2.59s2.71,1.08,2.71,2.56v.05c0,1.48-1.13,2.59-2.71,2.59M227.29,166.13c2.78,0,4.66-.67,5.86-1.87,1.18-1.18,1.72-2.88,1.72-5.32v-10.13h-4.68v1.58c-1.01-1.06-2.19-1.87-4.19-1.87-3.08,0-5.77,2.37-5.77,6.21v.05c0,3.82,2.64,6.18,5.91,6.18,1.95,0,3.18-.91,4.11-2v.52c0,2.12-1.16,3.28-3.5,3.28-1.8,0-3.23-.47-4.66-1.26l-1.5,3.1c1.95.99,4.11,1.53,6.7,1.53M213.44,162.14h4.68v-13.33h-4.68v13.33ZM213.35,147.61h4.88v-3.45h-4.88v3.45ZM205.98,162.44c3.25,0,5.45-1.53,5.45-4.46v-.05c0-2.59-2.09-3.5-4.73-4.24-1.4-.42-2.17-.67-2.17-1.18v-.05c0-.37.37-.64,1.08-.64,1.06,0,2.56.47,3.94,1.23l1.6-2.96c-1.53-.99-3.55-1.55-5.49-1.55-3.08,0-5.35,1.58-5.35,4.41v.05c0,2.69,2.09,3.57,4.73,4.26,1.4.39,2.14.62,2.14,1.13v.05c0,.47-.37.71-1.18.71-1.38,0-3.06-.52-4.58-1.53l-1.75,2.83c1.85,1.35,4.07,1.99,6.31,1.99M189.67,154.38c.25-1.45,1.08-2.41,2.32-2.41s2.14.94,2.32,2.41h-4.64ZM192.38,162.46c2.66,0,4.51-1.08,5.79-2.71l-2.59-2.14c-.96.94-1.85,1.36-2.96,1.36-1.45,0-2.51-.74-2.88-2.19h8.92c.02-.32.02-.67.02-.96,0-3.92-2.12-7.29-6.73-7.29-3.94,0-6.73,3.08-6.73,6.97v.05c.01,4.13,2.97,6.91,7.16,6.91M171.98,157.91v-8.77h1.95c2.86,0,4.76,1.6,4.76,4.36v.05c0,2.78-1.9,4.36-4.76,4.36h-1.95ZM167.2,162.14h6.55c6.21,0,9.83-3.7,9.83-8.67v-.05c0-4.98-3.57-8.53-9.73-8.53h-6.65v17.25h0Z"/>
      <path d="M136.34,132.33c14.04-12.74,21.06-30.09,21.06-52.04s-7-39.26-21.01-51.92c-14-12.66-33.19-18.99-57.58-18.99s-43.71,6.32-57.75,18.99C7.02,41.03,0,58.34,0,80.29s7.06,39.3,21.17,52.04c12.94,11.67,30.15,17.99,51.66,18.97v-59.11H28.68v-29.08h3.73c13.69,0,24.1-2.3,31.22-6.92,7.11-4.6,11.72-11.99,13.83-22.17h34.66v112.41c9.3-3.2,17.37-7.88,24.22-14.1M246.46,129.98h30.06v-53.42c0-8.9-.44-15.45-1.32-19.64-.87-4.18-2.34-7.83-4.39-10.94-3.34-4.98-8.09-8.81-14.24-11.51-6.15-2.7-13.3-4.05-21.44-4.05-7.21,0-13.98,1.43-20.31,4.31-6.32,2.86-12.15,7.15-17.48,12.83v-14.6h-30.05v97.01h30.05v-47.89c0-8.55,2.51-15.27,7.52-20.16,5.01-4.9,11.87-7.35,20.61-7.35,7.73,0,13.16,2.02,16.29,6.06,3.13,4.05,4.7,11.49,4.7,22.32v47.03h0ZM315.03,69.07c.53-5.91,2.98-10.61,7.34-14.09,4.36-3.49,10.01-5.24,16.92-5.24s12.63,1.74,16.96,5.19c4.34,3.45,6.76,8.19,7.3,14.23l-48.52-.09ZM314.15,89.29h82.78v-4.13c0-17.81-5.06-31.54-15.16-41.17-10.12-9.63-24.51-14.46-43.2-14.46s-32.18,4.65-42.61,13.93-15.65,21.93-15.65,37.92,5.23,28.67,15.69,38c10.46,9.35,24.65,14.02,42.56,14.02,14.14,0,26.11-3.04,35.95-9.1,9.84-6.06,16.76-14.65,20.74-25.78h-33.13c-1.82,4.45-4.78,7.89-8.87,10.32-4.11,2.42-9,3.64-14.69,3.64-7.26,0-13.09-2.08-17.52-6.28-4.42-4.18-6.72-9.82-6.89-16.91M435.76,58.18c0-2.75,1.72-4.93,5.15-6.5,3.43-1.58,8.18-2.37,14.27-2.37,7.27,0,12.83,1.04,16.7,3.12,3.87,2.08,6.15,5.25,6.86,9.54h30.05v-.88c0-9.83-4.59-17.56-13.8-23.15-9.2-5.6-21.94-8.4-38.22-8.4s-30.1,2.83-39.16,8.48c-9.05,5.66-13.57,13.81-13.57,24.48,0,8.2,2.93,14.98,8.79,20.34,5.85,5.36,13.79,8.47,23.81,9.35l27.15,2.38c6.92.52,11.45,1.34,13.59,2.45,2.14,1.12,3.2,2.93,3.2,5.44,0,2.83-1.88,5.1-5.67,6.87-3.77,1.75-8.8,2.63-15.07,2.63-9.14,0-15.84-1.08-20.08-3.25-4.25-2.17-6.61-5.69-7.08-10.54h-31.72c.64,11.65,5.7,20.44,15.16,26.36,9.46,5.9,23.19,8.88,41.17,8.88s31.32-3.02,40.55-9.05c9.23-6.04,13.83-14.85,13.83-26.46,0-8.49-2.79-15.24-8.38-20.25-5.6-5-13.61-7.89-24.04-8.66l-21.01-1.67c-8.2-.64-14-1.67-17.4-3.08-3.38-1.4-5.08-3.42-5.08-6.06M546.41,32.96h-29.87v97.01h29.87V32.96ZM516.54,23.3h29.87V0h-29.87v23.3ZM640.39,78.13c0,7.9-2.56,14.21-7.69,18.89-5.13,4.7-12.02,7.04-20.7,7.04s-15.66-2.34-20.78-7.04c-5.13-4.68-7.69-10.99-7.69-18.89s2.57-14.2,7.69-18.89,12.05-7.04,20.78-7.04,15.57,2.35,20.7,7.04c5.13,4.69,7.69,10.98,7.69,18.89M667.99,136.73c1.64-4.79,2.46-12.82,2.46-24.06V32.96h-30.06v8.79c-4.1-3.92-8.92-6.82-14.45-8.7s-12.11-2.81-19.73-2.81c-16.28,0-29.53,4.47-39.72,13.4s-15.29,20.42-15.29,34.48,5.11,25.74,15.33,34.54c10.23,8.77,23.63,13.18,40.21,13.18,7.38,0,13.82-.99,19.32-2.91,5.52-1.93,10.29-4.86,14.33-8.78v6.49c0,8.21-2.12,13.93-6.36,17.19-4.25,3.25-11.82,4.87-22.73,4.87-7.38,0-12.86-1-16.43-3.03s-5.36-5.09-5.36-9.18h-30.05v1.68c0,10.6,4.34,18.57,13.01,23.93,8.67,5.36,21.56,8.04,38.66,8.04,11.14,0,20.64-1.19,28.52-3.61,7.89-2.39,14.57-6.12,20.09-11.15,3.86-3.62,6.61-7.83,8.25-12.65M785.08,129.98v-53.42c0-8.9-.44-15.45-1.32-19.64-.88-4.18-2.34-7.83-4.39-10.94-3.34-4.98-8.08-8.81-14.24-11.51-6.15-2.7-13.3-4.05-21.44-4.05-7.2,0-13.97,1.43-20.3,4.31-6.33,2.86-12.16,7.15-17.49,12.83v-14.6h-30.05v97.01h30.05v-47.89c0-8.55,2.51-15.27,7.52-20.16,5-4.9,11.88-7.35,20.61-7.35,7.73,0,13.17,2.02,16.3,6.06,3.13,4.05,4.7,11.49,4.7,22.32v47.01h30.05v.02Z"/>
    </g>
  </g>
</svg>