<?xml version="1.0" encoding="utf-8"?>
<!-- Generator: Adobe Illustrator 29.2.1, SVG Export Plug-In . SVG Version: 9.03 Build 55982)  -->
<svg version="1.0" id="Layer_1" xmlns="http://www.w3.org/2000/svg" xmlns:xlink="http://www.w3.org/1999/xlink" x="0px" y="0px"
	 viewBox="0 0 301.51 271.85" style="enable-background:new 0 0 301.51 271.85;" xml:space="preserve">
<g>
	<path d="M261.17,235.51c26.89-24.41,40.34-57.63,40.34-99.68c0-42.05-13.41-75.19-40.24-99.45C234.46,12.11,197.69,0,150.97,0
		C104.12,0,67.24,12.11,40.35,36.37C13.45,60.63,0,93.78,0,135.83c0,42.05,13.52,75.27,40.55,99.68
		c24.78,22.35,57.76,34.47,98.95,36.34V158.62H54.94v-55.71h7.15c26.23,0,46.17-4.41,59.8-13.25c13.63-8.81,22.45-22.97,26.49-42.47
		h66.4v215.32C232.59,256.39,248.06,247.43,261.17,235.51"/>
</g>
</svg>
