<?xml version="1.0" encoding="UTF-8"?>
<svg id="Layer_2" data-name="Layer 2" xmlns="http://www.w3.org/2000/svg" viewBox="0 0 2335.32 606.17">
  <defs>
    <style>
      .cls-1 {
        fill: #fff;
      }

      .cls-2 {
        fill: #58a386;
      }
    </style>
  </defs>
  <g id="Layer_1-2" data-name="Layer 1">
    <g id="uuid-82033c05-e9dc-42c0-8164-ecf0fde22624" data-name="Layer 1-2">
      <g>
        <path class="cls-1" d="M451.19,238.84c0,60.84-18.66,107.36-57.06,142.2h-.01c-17.11,15.55-37.47,27.79-60.61,36.46V101.2h-103.1c-6.28,30.28-19.99,52.26-41.14,65.95-21.18,13.74-52.14,20.58-92.87,20.58h-11.09v86.5h131.33v158.7l-.65.08c-58.97-2.93-106.61-20.42-141.62-52-38.6-34.85-57.37-81.36-57.37-142.17s18.66-107.21,57.04-141.82c38.31-34.58,92.27-52.11,160.39-52.11s121.64,17.53,159.87,52.1c38.29,34.6,56.89,80.99,56.89,141.83Z"/>
        <path class="cls-1" d="M733.12,386.64h89.42v-158.91c0-26.47-1.31-45.96-3.93-58.42-2.59-12.43-6.96-23.29-13.06-32.54-9.94-14.81-24.06-26.21-42.36-34.24-18.29-8.03-39.56-12.05-63.78-12.05-21.45,0-41.59,4.25-60.41,12.82-18.8,8.51-36.14,21.27-52,38.16v-43.43h-89.39v288.57h89.39v-142.46c0-25.43,7.47-45.42,22.37-59.97,14.9-14.58,35.31-21.86,61.31-21.86,22.99,0,39.15,6.01,48.46,18.03,9.31,12.05,13.98,34.18,13.98,66.39v139.9h0Z"/>
        <path class="cls-1" d="M1180.72,253.32c0-52.98-15.05-93.82-45.1-122.46-30.1-28.65-72.91-43.02-128.5-43.02s-95.73,13.84-126.75,41.44c-31.03,27.61-46.55,65.23-46.55,112.8s15.55,85.28,46.67,113.04c31.11,27.81,73.32,41.7,126.6,41.7,42.06,0,77.67-9.04,106.94-27.07s49.85-43.58,61.69-76.69h-98.55c-5.41,13.24-14.22,23.47-26.38,30.7-12.23,7.2-26.78,10.83-43.7,10.83-21.6,0-38.94-6.19-52.12-18.68-13.15-12.43-19.99-29.21-20.49-50.3h246.24v-12.29ZM937.1,205.46c1.57-17.58,8.86-31.56,21.83-41.91,12.97-10.38,29.78-15.59,50.33-15.59s37.57,5.18,50.45,15.44c12.91,10.26,20.11,24.36,21.71,42.33l-144.32-.27Z"/>
        <path class="cls-1" d="M1296.22,173.06c0-8.18,5.12-14.66,15.32-19.34,10.2-4.7,24.33-7.05,42.45-7.05,21.63,0,38.16,3.09,49.68,9.28,11.51,6.19,18.29,15.62,20.41,28.38h89.39v-2.62c0-29.24-13.65-52.23-41.05-68.86-27.37-16.66-65.26-24.99-113.69-24.99s-89.54,8.42-116.49,25.22c-26.92,16.84-40.37,41.08-40.37,72.82,0,24.39,8.72,44.56,26.15,60.5,17.4,15.94,41.02,25.2,70.83,27.81l80.76,7.08c20.58,1.55,34.06,3.99,40.43,7.29,6.37,3.33,9.52,8.72,9.52,16.18,0,8.42-5.59,15.17-16.87,20.44-11.21,5.21-26.18,7.82-44.83,7.82-27.19,0-47.12-3.21-59.73-9.67-12.64-6.45-19.66-16.93-21.06-31.35h-94.36c1.9,34.65,16.96,60.8,45.1,78.41,28.14,17.55,68.98,26.41,122.47,26.41s93.17-8.98,120.62-26.92c27.46-17.97,41.14-44.17,41.14-78.71,0-25.25-8.3-45.33-24.93-60.24-16.66-14.87-40.48-23.47-71.51-25.76l-62.5-4.97c-24.39-1.9-41.64-4.97-51.76-9.16-10.05-4.16-15.11-10.17-15.11-18.03h0Z"/>
        <rect class="cls-1" x="1536.51" y="98.04" width="88.85" height="288.57"/>
        <rect class="cls-1" x="1536.51" width="88.85" height="69.31"/>
        <path class="cls-1" d="M1904.92,98.05v26.14c-12.19-11.66-26.53-20.28-42.98-25.88-16.45-5.59-36.02-8.35-58.69-8.35-48.43,0-87.84,13.29-118.15,39.86-30.31,26.56-45.48,60.74-45.48,102.56s15.2,76.57,45.6,102.75c30.43,26.08,70.29,39.2,119.61,39.2,21.95,0,41.11-2.94,57.47-8.65,16.42-5.75,30.61-14.46,42.62-26.12v19.3c0,24.42-6.3,41.44-18.92,51.14-12.64,9.66-35.16,14.48-67.61,14.48-21.95,0-38.25-2.97-48.87-9.01-10.62-6.04-15.95-15.14-15.95-27.31h-89.38v5c0,31.53,12.91,55.24,38.7,71.18,25.79,15.95,64.13,23.92,115,23.92,33.13,0,61.39-3.54,84.83-10.74,23.47-7.11,43.34-18.2,59.76-33.17,11.49-10.76,19.67-23.29,24.54-37.62,4.88-14.25,7.32-38.14,7.32-71.57V98.05h-89.42ZM1882.05,288.6c-15.26,13.98-35.76,20.94-61.58,20.94s-46.58-6.96-61.81-20.94c-15.26-13.92-22.87-32.69-22.87-56.19s7.64-42.24,22.87-56.19c15.23-13.95,35.84-20.94,61.81-20.94s46.32,6.99,61.58,20.94c15.26,13.95,22.87,32.66,22.87,56.19s-7.61,42.27-22.87,56.19Z"/>
        <path class="cls-1" d="M2335.32,386.64v-158.91c0-26.47-1.31-45.96-3.93-58.42-2.62-12.43-6.96-23.29-13.06-32.54-9.94-14.81-24.04-26.21-42.36-34.24-18.29-8.03-39.56-12.05-63.78-12.05-21.42,0-41.56,4.25-60.39,12.82-18.83,8.51-36.17,21.27-52.03,38.16v-43.43h-89.39v288.57h89.39v-142.46c0-25.43,7.47-45.42,22.37-59.97,14.87-14.58,35.34-21.86,61.31-21.86,22.99,0,39.18,6.01,48.49,18.03,9.31,12.05,13.98,34.18,13.98,66.39v139.84h89.39v.06h0Z"/>
      </g>
    </g>
    <g>
      <rect class="cls-2" x="617.72" y="437.94" width="17.67" height="168.18"/>
      <polygon class="cls-1" points="715.59 606.14 715.59 589.52 651.59 589.52 651.59 606.12 715.59 606.14"/>
      <polygon class="cls-1" points="816.16 437.15 837.03 437.15 882.08 506.9 871.39 523.19 816.16 437.15"/>
      <polygon class="cls-2" points="950.05 437.15 884.63 538.21 884.63 606.17 902.19 606.17 902.19 543.55 970.92 437.15 950.05 437.15"/>
      <polygon class="cls-1" points="1093.78 472.53 1094.29 472.53 1111.34 498.5 1111.34 606.17 1093.78 606.17 1093.78 472.53"/>
      <polygon class="cls-2" points="1208.07 437.92 1208.07 581.74 1114.9 437.92 1093.78 437.92 1202.72 606.17 1225.63 606.17 1225.63 437.92 1208.07 437.92"/>
      <polygon class="cls-2" points="1426.89 518.86 1479.83 437.15 1457.94 437.15 1348.49 605.92 1370.12 605.92 1416.45 534.9 1462.27 606.17 1483.4 606.17 1426.89 518.86"/>
      <polygon class="cls-1" points="1374.2 437.15 1353.32 437.15 1394.05 500.54 1404.74 484.25 1374.2 437.15"/>
    </g>
    <path class="cls-2" d="M405.71,84.39c-41.65-37.66-98.73-56.48-171.28-56.48S104.4,46.7,62.64,84.39C20.88,122.05,0,173.54,0,238.84s21,116.9,62.97,154.8c38.49,34.71,89.68,53.51,153.67,56.43v-17.14l-.65.08c-58.97-2.93-106.61-20.42-141.62-52-38.6-34.85-57.37-81.36-57.37-142.17s18.66-107.21,57.04-141.82c38.31-34.58,92.27-52.11,160.39-52.11s121.64,17.53,159.87,52.1c38.29,34.6,56.89,80.99,56.89,141.83s-18.66,107.36-57.06,142.2h-.01c-17.11,15.55-37.47,27.79-60.61,36.46v18.08c27.67-9.52,51.67-23.44,72.05-41.94,41.76-37.9,62.64-89.51,62.64-154.8s-20.82-116.79-62.49-154.45Z"/>
  </g>
</svg>