<?xml version="1.0" encoding="UTF-8"?>
<svg id="Layer_2" data-name="Layer 2" xmlns="http://www.w3.org/2000/svg" viewBox="0 0 468.2 422.16">
  <defs>
    <style>
      .cls-1 {
        fill: #393839;
      }

      .cls-2 {
        fill: #58a386;
      }
    </style>
  </defs>
  <g id="Layer_1-2" data-name="Layer 1">
    <g id="uuid-15777421-6dab-4458-a879-4e0a67c9d7d9" data-name="Layer 1-2">
      <path class="cls-1" d="M468.2,210.93c0,65.29-20.88,116.9-62.64,154.8-20.38,18.5-44.38,32.42-72.05,41.94V73.29h-103.1c-6.28,30.28-19.99,52.26-41.14,65.95-21.18,13.74-52.14,20.58-92.87,20.58h-11.09v86.5h131.33v175.84c-63.99-2.92-115.18-21.72-153.67-56.43C21,327.83,0,276.22,0,210.93S20.88,94.14,62.64,56.48C104.4,18.79,161.87,0,234.43,0s129.63,18.82,171.28,56.48c41.67,37.66,62.49,89.15,62.49,154.45Z"/>
    </g>
    <path class="cls-2" d="M405.71,56.48C364.06,18.82,306.98,0,234.43,0S104.4,18.79,62.64,56.48C20.88,94.14,0,145.63,0,210.93s21,116.9,62.97,154.8c38.49,34.71,89.68,53.51,153.67,56.43v-17.14l-.65.08c-58.97-2.93-106.61-20.42-141.62-52-38.6-34.85-57.37-81.36-57.37-142.17s18.66-107.21,57.04-141.82c38.31-34.58,92.27-52.11,160.39-52.11s121.64,17.53,159.87,52.1c38.29,34.6,56.89,80.99,56.89,141.83s-18.66,107.36-57.06,142.2h-.01c-17.11,15.55-37.47,27.79-60.61,36.46v18.08c27.67-9.52,51.67-23.44,72.05-41.94,41.76-37.9,62.64-89.51,62.64-154.8s-20.82-116.79-62.49-154.45Z"/>
  </g>
</svg>